<svg width="4453" height="2226" xmlns="http://www.w3.org/2000/svg" xmlns:xlink="http://www.w3.org/1999/xlink" overflow="hidden"><defs><clipPath id="clip0"><rect x="2902" y="486" width="4453" height="2226"/></clipPath><clipPath id="clip1"><rect x="2903" y="487" width="4451" height="2223"/></clipPath><clipPath id="clip2"><rect x="2903" y="487" width="4451" height="2223"/></clipPath><clipPath id="clip3"><rect x="2903" y="487" width="4451" height="2223"/></clipPath><clipPath id="clip4"><rect x="3968" y="537" width="3297" height="1936"/></clipPath><clipPath id="clip5"><rect x="3968" y="537" width="3297" height="1936"/></clipPath><clipPath id="clip6"><rect x="2903" y="487" width="4451" height="2223"/></clipPath><clipPath id="clip7"><rect x="2903" y="487" width="4451" height="2223"/></clipPath><clipPath id="clip8"><rect x="2903" y="487" width="4451" height="2223"/></clipPath><clipPath id="clip9"><rect x="2903" y="487" width="4451" height="2223"/></clipPath><clipPath id="clip10"><rect x="2903" y="487" width="4451" height="2223"/></clipPath><clipPath id="clip11"><rect x="2903" y="487" width="4451" height="2223"/></clipPath><clipPath id="clip12"><rect x="2903" y="487" width="4451" height="2223"/></clipPath><clipPath id="clip13"><rect x="2903" y="487" width="4451" height="2223"/></clipPath><clipPath id="clip14"><rect x="2903" y="487" width="4451" height="2223"/></clipPath><clipPath id="clip15"><rect x="2903" y="487" width="4451" height="2223"/></clipPath><clipPath id="clip16"><rect x="2903" y="487" width="4451" height="2223"/></clipPath><clipPath id="clip17"><rect x="2903" y="487" width="4451" height="2223"/></clipPath><clipPath id="clip18"><rect x="2903" y="487" width="4451" height="2223"/></clipPath><clipPath id="clip19"><rect x="2903" y="487" width="4451" height="2223"/></clipPath><clipPath id="clip20"><rect x="2903" y="487" width="4451" height="2223"/></clipPath><clipPath id="clip21"><rect x="2903" y="487" width="4451" height="2223"/></clipPath><clipPath id="clip22"><rect x="2903" y="487" width="4451" height="2223"/></clipPath><clipPath id="clip23"><rect x="2903" y="487" width="4451" height="2223"/></clipPath><clipPath id="clip24"><rect x="2903" y="487" width="4451" height="2223"/></clipPath><clipPath id="clip25"><rect x="2903" y="487" width="4451" height="2223"/></clipPath><clipPath id="clip26"><rect x="2903" y="487" width="4451" height="2223"/></clipPath><clipPath id="clip27"><rect x="2903" y="487" width="4451" height="2223"/></clipPath><clipPath id="clip28"><rect x="2903" y="487" width="4451" height="2223"/></clipPath><clipPath id="clip29"><rect x="2903" y="487" width="4451" height="2223"/></clipPath><clipPath id="clip30"><rect x="2903" y="487" width="4451" height="2223"/></clipPath><clipPath id="clip31"><rect x="2903" y="487" width="4451" height="2223"/></clipPath><clipPath id="clip32"><rect x="2903" y="487" width="4451" height="2223"/></clipPath><clipPath id="clip33"><rect x="2903" y="487" width="4451" height="2223"/></clipPath><clipPath id="clip34"><rect x="2903" y="487" width="4451" height="2223"/></clipPath><clipPath id="clip35"><rect x="2903" y="487" width="4451" height="2223"/></clipPath><clipPath id="clip36"><rect x="2903" y="487" width="4451" height="2223"/></clipPath><clipPath id="clip37"><rect x="2903" y="487" width="4451" height="2223"/></clipPath><clipPath id="clip38"><rect x="2903" y="487" width="4451" height="2223"/></clipPath></defs><g clip-path="url(#clip0)" transform="translate(-2902 -486)"><path d="M2903 532.839C2903 507.523 2923.52 487 2948.84 487L7308.16 487C7333.48 487 7354 507.523 7354 532.839L7354 2665.16C7354 2690.48 7333.48 2711 7308.16 2711L2948.84 2711C2923.52 2711 2903 2690.48 2903 2665.16Z" fill="#FFFFFF" fill-rule="evenodd"/><g clip-path="url(#clip1)"><rect x="3969" y="538" width="3293" height="1932" fill="#FFFFFF"/></g><g clip-path="url(#clip2)"><path d="M4051.13 538 4051.13 2470M4133.14 538 4133.14 2470M4216.14 538 4216.14 2470M4298.14 538 4298.14 2470M4463.15 538 4463.15 2470M4545.15 538 4545.15 2470M4627.15 538 4627.15 2470M4710.15 538 4710.15 2470M4874.16 538 4874.16 2470M4957.16 538 4957.16 2470M5039.17 538 5039.17 2470M5121.17 538 5121.17 2470M5286.17 538 5286.17 2470M5368.18 538 5368.18 2470M5451.18 538 5451.18 2470M5533.18 538 5533.18 2470M5698.19 538 5698.19 2470M5780.19 538 5780.19 2470M5862.19 538 5862.19 2470M5945.2 538 5945.2 2470M6109.2 538 6109.2 2470M6192.2 538 6192.2 2470M6274.21 538 6274.21 2470M6356.21 538 6356.21 2470M6521.21 538 6521.21 2470M6603.22 538 6603.22 2470M6686.22 538 6686.22 2470M6768.22 538 6768.22 2470M6933.23 538 6933.23 2470M7015.23 538 7015.23 2470M7097.23 538 7097.23 2470M7180.24 538 7180.24 2470" stroke="#CCCCCC" stroke-width="2.29167" stroke-linejoin="round" stroke-miterlimit="10" fill="none"/></g><g clip-path="url(#clip3)"><path d="M4380.14 538 4380.14 2470M4792.16 538 4792.16 2470M5204.17 538 5204.17 2470M5615.18 538 5615.18 2470M6027.2 538 6027.2 2470M6439.21 538 6439.21 2470M6850.22 538 6850.22 2470M7262 538 7262 2470" stroke="#B7B7B7" stroke-width="2.29167" stroke-linejoin="round" stroke-miterlimit="10" fill="none"/></g><g clip-path="url(#clip4)"><path d="M4051.13 638.021 3969 638.021 3969 669.022 4051.13 669.022ZM4257.14 715.023 3969 715.023 3969 746.024 4257.14 746.024ZM4339.14 793.026 3969 793.026 3969 824.027 4339.14 824.027ZM4545.15 947.031 3969 947.031 3969 978.032 4545.15 978.032ZM4545.15 1025.03 3969 1025.03 3969 1056.03 4545.15 1056.03ZM4545.15 1179.04 3969 1179.04 3969 1210.04 4545.15 1210.04ZM4586.15 1257.04 3969 1257.04 3969 1287.04 4586.15 1287.04ZM4689.15 1334.04 3969 1334.04 3969 1365.04 4689.15 1365.04ZM4977.16 1489.05 3969 1489.05 3969 1519.05 4977.16 1519.05ZM5121.17 1566.05 3969 1566.05 3969 1597.05 5121.17 1597.05ZM5265.17 1643.05 3969 1643.05 3969 1674.05 5265.17 1674.05ZM5409.18 1720.06 3969 1720.06 3969 1751.06 5409.18 1751.06ZM5554.18 1798.06 3969 1798.06 3969 1829.06 5554.18 1829.06ZM5698.19 1875.06 3969 1875.06 3969 1906.06 5698.19 1906.06ZM5698.19 1952.06 3969 1952.06 3969 1983.06 5698.19 1983.06ZM5986.2 2030.07 3969 2030.07 3969 2061.07 5986.2 2061.07ZM6130.2 2107.07 3969 2107.07 3969 2138.07 6130.2 2138.07ZM6500.21 2184.07 3969 2184.07 3969 2215.07 6500.21 2215.07ZM5842.19 2339.08 3969 2339.08 3969 2370.08 5842.19 2370.08ZM6583.22 2416.08 3969 2416.08 3969 2447.08 6583.22 2447.08Z" fill="#FFFFFF"/></g><g clip-path="url(#clip5)"><path d="M4504.15 561.018 3969 561.018 3969 592.019 4504.15 592.019ZM4216.14 638.021 4051.13 638.021 4051.13 669.022 4216.14 669.022ZM4339.14 715.023 4257.14 715.023 4257.14 746.024 4339.14 746.024ZM4504.15 793.026 4339.14 793.026 4339.14 824.027 4504.15 824.027ZM6089.2 947.031 4545.15 947.031 4545.15 978.032 6089.2 978.032ZM5759.19 1025.03 4545.15 1025.03 4545.15 1056.03 5759.19 1056.03ZM6212.2 1179.04 4545.15 1179.04 4545.15 1210.04 6212.2 1210.04ZM6233.2 1257.04 4586.15 1257.04 4586.15 1287.04 6233.2 1287.04ZM4936.16 1334.04 4689.15 1334.04 4689.15 1365.04 4936.16 1365.04ZM5080.17 1489.05 4977.16 1489.05 4977.16 1519.05 5080.17 1519.05ZM5224.17 1566.05 5121.17 1566.05 5121.17 1597.05 5224.17 1597.05ZM5368.18 1643.05 5265.17 1643.05 5265.17 1674.05 5368.18 1674.05ZM5759.19 1720.06 5409.18 1720.06 5409.18 1751.06 5759.19 1751.06ZM5656.19 1798.06 5554.18 1798.06 5554.18 1829.06 5656.19 1829.06ZM5945.2 1875.06 5698.19 1875.06 5698.19 1906.06 5945.2 1906.06ZM5945.2 1952.06 5698.19 1952.06 5698.19 1983.06 5945.2 1983.06ZM6089.2 2030.07 5986.2 2030.07 5986.2 2061.07 6089.2 2061.07ZM6727.22 2107.07 6130.2 2107.07 6130.2 2138.07 6727.22 2138.07ZM6788.22 2184.07 6500.21 2184.07 6500.21 2215.07 6788.22 2215.07ZM6788.22 2339.08 5842.19 2339.08 5842.19 2370.08 6788.22 2370.08ZM7015.23 2416.08 6583.22 2416.08 6583.22 2447.08 7015.23 2447.08Z" fill="#5CBCD6"/></g><g clip-path="url(#clip6)"><path d="M3969 538 3969 2470" stroke="#000000" stroke-width="2.29167" stroke-linejoin="round" stroke-miterlimit="10" fill="none" fill-rule="evenodd"/></g><g clip-path="url(#clip7)"><path d="M3956.13 576.019 3982.13 576.019M3956.13 654.021 3982.13 654.021M3956.13 731.024 3982.13 731.024M3956.13 808.026 3982.13 808.026M3956.13 885.029 3982.13 885.029M3956.13 963.032 3982.13 963.032M3956.13 1040.03 3982.13 1040.03M3956.13 1117.04 3982.13 1117.04M3956.13 1195.04 3982.13 1195.04M3956.13 1272.04 3982.13 1272.04M3956.13 1349.04 3982.13 1349.04M3956.13 1427.05 3982.13 1427.05M3956.13 1504.05 3982.13 1504.05M3956.13 1581.05 3982.13 1581.05M3956.13 1659.05 3982.13 1659.05M3956.13 1736.06 3982.13 1736.06M3956.13 1813.06 3982.13 1813.06M3956.13 1891.06 3982.13 1891.06M3956.13 1968.06 3982.13 1968.06M3956.13 2045.07 3982.13 2045.07M3956.13 2122.07 3982.13 2122.07M3956.13 2200.07 3982.13 2200.07M3956.13 2277.07 3982.13 2277.07M3956.13 2354.08 3982.13 2354.08M3956.13 2432.08 3982.13 2432.08M3956.13 2470 3982.13 2470M3951 538 3986 538M3951 615.02 3986 615.02M3951 692.023 3986 692.023M3951 769.025 3986 769.025M3951 847.028 3986 847.028M3951 924.03 3986 924.03M3951 1001.03 3986 1001.03M3951 1079.04 3986 1079.04M3951 1156.04 3986 1156.04M3951 1233.04 3986 1233.04M3951 1311.04 3986 1311.04M3951 1388.05 3986 1388.05M3951 1465.05 3986 1465.05M3951 1543.05 3986 1543.05M3951 1620.05 3986 1620.05M3951 1697.06 3986 1697.06M3951 1775.06 3986 1775.06M3951 1852.06 3986 1852.06M3951 1929.06 3986 1929.06M3951 2007.07 3986 2007.07M3951 2084.07 3986 2084.07M3951 2161.07 3986 2161.07M3951 2238.07 3986 2238.07M3951 2316.08 3986 2316.08M3951 2393.08 3986 2393.08M3951 2470 3986 2470" stroke="#000000" stroke-width="2.29167" stroke-linejoin="round" stroke-miterlimit="10" fill="none"/></g><g clip-path="url(#clip8)"><text font-family="Calibri,Calibri_MSFontService,sans-serif" font-weight="400" font-size="55" transform="matrix(1 0 0 1 3954.9 2557)">0</text></g><g clip-path="url(#clip9)"><text font-family="Calibri,Calibri_MSFontService,sans-serif" font-weight="400" font-size="55" transform="matrix(1 0 0 1 4352.62 2557)">20</text></g><g clip-path="url(#clip10)"><text font-family="Calibri,Calibri_MSFontService,sans-serif" font-weight="400" font-size="55" transform="matrix(1 0 0 1 4764.28 2557)">40</text></g><g clip-path="url(#clip11)"><text font-family="Calibri,Calibri_MSFontService,sans-serif" font-weight="400" font-size="55" transform="matrix(1 0 0 1 5175.93 2557)">60</text></g><g clip-path="url(#clip12)"><text font-family="Calibri,Calibri_MSFontService,sans-serif" font-weight="400" font-size="55" transform="matrix(1 0 0 1 5587.59 2557)">80</text></g><g clip-path="url(#clip13)"><text font-family="Calibri,Calibri_MSFontService,sans-serif" font-weight="400" font-size="55" transform="matrix(1 0 0 1 5985.31 2557)">100</text></g><g clip-path="url(#clip14)"><text font-family="Calibri,Calibri_MSFontService,sans-serif" font-weight="400" font-size="55" transform="matrix(1 0 0 1 6396.96 2557)">120</text></g><g clip-path="url(#clip15)"><text font-family="Calibri,Calibri_MSFontService,sans-serif" font-weight="400" font-size="55" transform="matrix(1 0 0 1 6808.61 2557)">140</text></g><g clip-path="url(#clip16)"><text font-family="Calibri,Calibri_MSFontService,sans-serif" font-weight="400" font-size="55" transform="matrix(1 0 0 1 7220.27 2557)">160</text></g><g clip-path="url(#clip17)"><text font-family="Calibri,Calibri_MSFontService,sans-serif" font-weight="400" font-size="55" transform="matrix(1 0 0 1 3423.79 592)">Introducción a Python</text></g><g clip-path="url(#clip18)"><text font-family="Calibri,Calibri_MSFontService,sans-serif" font-weight="400" font-size="55" transform="matrix(1 0 0 1 3560.67 669)">Curso IA Google</text></g><g clip-path="url(#clip19)"><text font-family="Calibri,Calibri_MSFontService,sans-serif" font-weight="400" font-size="55" transform="matrix(1 0 0 1 3229.04 746)">Curso de Algoritmos Genéticos</text></g><g clip-path="url(#clip20)"><text font-family="Calibri,Calibri_MSFontService,sans-serif" font-weight="400" font-size="55" transform="matrix(1 0 0 1 2933.01 824)">Aprendizaje de funcionamiento de Artemisa</text></g><g clip-path="url(#clip21)"><text font-family="Calibri,Calibri_MSFontService,sans-serif" font-weight="400" font-size="55" transform="matrix(1 0 0 1 3373.03 978)">Investigación sobre CNN</text></g><g clip-path="url(#clip22)"><text font-family="Calibri,Calibri_MSFontService,sans-serif" font-weight="400" font-size="55" transform="matrix(1 0 0 1 3414.67 1056)">Investigación sobre AE</text></g><g clip-path="url(#clip23)"><text font-family="Calibri,Calibri_MSFontService,sans-serif" font-weight="400" font-size="55" transform="matrix(1 0 0 1 3309.87 1210)">Implementación del código</text></g><g clip-path="url(#clip24)"><text font-family="Calibri,Calibri_MSFontService,sans-serif" font-weight="400" font-size="55" transform="matrix(1 0 0 1 3403.46 1287)">Pruebas y correcciones</text></g><g clip-path="url(#clip25)"><text font-family="Calibri,Calibri_MSFontService,sans-serif" font-weight="400" font-size="55" transform="matrix(1 0 0 1 3269.97 1365)">Implementación en Artemisa</text></g><g clip-path="url(#clip26)"><text font-family="Calibri,Calibri_MSFontService,sans-serif" font-weight="400" font-size="55" transform="matrix(1 0 0 1 3591.13 1519)">Experimento 1</text></g><g clip-path="url(#clip27)"><text font-family="Calibri,Calibri_MSFontService,sans-serif" font-weight="400" font-size="55" transform="matrix(1 0 0 1 3591.13 1597)">Experimento 2</text></g><g clip-path="url(#clip28)"><text font-family="Calibri,Calibri_MSFontService,sans-serif" font-weight="400" font-size="55" transform="matrix(1 0 0 1 3591.13 1674)">Experimento 3</text></g><g clip-path="url(#clip29)"><text font-family="Calibri,Calibri_MSFontService,sans-serif" font-weight="400" font-size="55" transform="matrix(1 0 0 1 3591.13 1751)">Experimento 4</text></g><g clip-path="url(#clip30)"><text font-family="Calibri,Calibri_MSFontService,sans-serif" font-weight="400" font-size="55" transform="matrix(1 0 0 1 3591.13 1829)">Experimento 5</text></g><g clip-path="url(#clip31)"><text font-family="Calibri,Calibri_MSFontService,sans-serif" font-weight="400" font-size="55" transform="matrix(1 0 0 1 3591.13 1906)">Experimento 6</text></g><g clip-path="url(#clip32)"><text font-family="Calibri,Calibri_MSFontService,sans-serif" font-weight="400" font-size="55" transform="matrix(1 0 0 1 3591.13 1983)">Experimento 7</text></g><g clip-path="url(#clip33)"><text font-family="Calibri,Calibri_MSFontService,sans-serif" font-weight="400" font-size="55" transform="matrix(1 0 0 1 3591.13 2061)">Experimento 8</text></g><g clip-path="url(#clip34)"><text font-family="Calibri,Calibri_MSFontService,sans-serif" font-weight="400" font-size="55" transform="matrix(1 0 0 1 3591.13 2138)">Experimento 9</text></g><g clip-path="url(#clip35)"><text font-family="Calibri,Calibri_MSFontService,sans-serif" font-weight="400" font-size="55" transform="matrix(1 0 0 1 3563.26 2215)">Experimento 10</text></g><g clip-path="url(#clip36)"><text font-family="Calibri,Calibri_MSFontService,sans-serif" font-weight="400" font-size="55" transform="matrix(1 0 0 1 3336.8 2370)">Redacción del documento</text></g><g clip-path="url(#clip37)"><text font-family="Calibri,Calibri_MSFontService,sans-serif" font-weight="400" font-size="55" transform="matrix(1 0 0 1 3379.58 2447)">Revisión del documento</text></g><g clip-path="url(#clip38)"><text font-family="Calibri,Calibri_MSFontService,sans-serif" font-weight="400" font-size="55" transform="matrix(1 0 0 1 5428.88 2638)">Días de proyecto</text></g><path d="M2903 532.839C2903 507.523 2923.52 487 2948.84 487L7308.16 487C7333.48 487 7354 507.523 7354 532.839L7354 2665.16C7354 2690.48 7333.48 2711 7308.16 2711L2948.84 2711C2923.52 2711 2903 2690.48 2903 2665.16Z" stroke="#898989" stroke-width="2.29167" stroke-linejoin="round" stroke-miterlimit="10" fill="none" fill-rule="evenodd"/></g></svg>